<?xml version="1.0" standalone="no"?>
<!DOCTYPE svg PUBLIC "-//W3C//DTD SVG 20010904//EN"
 "http://www.w3.org/TR/2001/REC-SVG-20010904/DTD/svg10.dtd">
<svg version="1.0" xmlns="http://www.w3.org/2000/svg"
 width="260.000000pt" height="260.000000pt" viewBox="0 0 260.000000 260.000000"
 preserveAspectRatio="xMidYMid meet">
<metadata>
Created by potrace 1.14, written by Peter Selinger 2001-2017
</metadata>
<g transform="translate(0.000000,260.000000) scale(0.100000,-0.100000)"
fill="#000000" stroke="none">
<path d="M490 2536 l0 -64 -107 -1 c-60 -1 -112 -6 -117 -11 -10 -10 -9 -277
0 -292 3 -4 54 -8 115 -8 l109 0 0 -1030 0 -1030 -144 0 c-118 0 -147 -3 -160
-16 -19 -18 -20 -38 -6 -65 10 -19 33 -19 1115 -19 990 0 1105 2 1119 16 20
20 20 48 0 68 -14 14 -101 16 -810 16 l-794 0 -5 23 c-3 12 -4 333 -3 713 l3
690 317 317 317 317 260 0 261 0 0 -152 c0 -84 -4 -158 -8 -164 -4 -6 -22 -19
-39 -28 -41 -20 -53 -59 -28 -86 10 -11 13 -20 7 -20 -6 0 -14 -16 -18 -36 -5
-29 -3 -39 10 -46 15 -8 15 -11 1 -24 -19 -20 -19 -48 0 -64 8 -7 15 -16 15
-21 0 -4 -33 -42 -73 -83 -60 -62 -75 -85 -90 -134 -21 -72 -21 -104 -1 -173
42 -141 187 -228 331 -199 32 7 70 21 85 31 14 11 29 19 33 19 5 0 37 33 63
65 23 29 52 119 52 163 0 53 -24 134 -49 165 -9 10 -53 56 -98 102 l-82 84 37
18 c43 21 53 54 26 84 -15 17 -15 19 0 25 21 8 21 57 0 75 -14 12 -14 14 1 25
13 10 16 21 11 48 -7 36 -15 41 -63 37 -23 -2 -23 -1 -23 143 l0 145 88 3 87
3 0 150 0 150 -715 5 -715 5 -3 63 -3 62 -154 0 -155 0 0 -64z m468 -529
l-153 -153 -3 140 c-1 77 0 146 2 153 4 10 42 13 156 13 l152 0 -154 -153z
m1122 -606 c82 -82 110 -130 110 -189 0 -64 -32 -118 -93 -157 -35 -22 -131
-25 -167 -4 -88 50 -124 159 -80 242 16 29 144 173 158 176 1 1 34 -30 72 -68z"/>
</g>
</svg>
